<svg id="Capa_1" enable-background="new 0 0 512 512" height="512" viewBox="0 0 512 512" width="512" xmlns="http://www.w3.org/2000/svg"><g><g><path d="m452 0h-236c-33.084 0-60 26.916-60 60v60h40v-60c0-11.028 8.972-20 20-20h236c11.028 0 20 8.972 20 20v232c0 11.028-8.972 20-20 20h-56v40h56c33.084 0 60-26.916 60-60v-232c0-33.084-26.916-60-60-60zm-156 160h-236c-33.084 0-60 26.916-60 60v232c0 33.084 26.916 60 60 60h236c33.084 0 60-26.916 60-60v-232c0-33.084-26.916-60-60-60zm20 292c0 11.028-8.972 20-20 20h-236c-11.028 0-20-8.972-20-20v-232c0-11.028 8.972-20 20-20h236c11.028 0 20 8.972 20 20z"></path></g></g></svg>