<svg
      xmlns="http://www.w3.org/2000/svg"
      x="0"
      y="0"
      enableBackground="new 0 0 480.24 480.24"
      version="1.1"
      viewBox="0 0 480.24 480.24"
      xmlSpace="preserve"
    >
      <path d="M391.86 144.552c.16-2.712.248-5.464.248-8.312.09-59.919-39.046-112.838-96.364-130.3-71.85-21.89-147.842 18.61-169.732 90.46-2.024-.104-3.976-.16-5.904-.16-66.274 0-120 53.726-120 120s53.726 120 120 120h72.088a8 8 0 000-16h-72.088c-57.438 0-104-46.562-104-104s46.562-104 104-104c3.688.01 7.373.211 11.04.6a8.16 8.16 0 008.56-6.008c13.401-53.473 61.51-90.937 116.637-90.828 66.274.13 119.894 53.962 119.763 120.236.021 4.99-.303 9.975-.968 14.92a8.001 8.001 0 007.928 9.08h1.04c44.183 0 80 35.817 80 80s-35.817 80-80 80h-95.464a8 8 0 000 16h95.464c50.028.01 91.677-38.401 95.707-88.267 4.271-52.846-35.108-99.15-87.955-103.421z"></path>
      <path class="arrow" d="M336.276 245.088L240.108 148.928 143.94 245.088 155.26 256.408 232.108 179.552 232.108 480.24 248.108 480.24 248.108 179.552 324.956 256.408z"></path>
    </svg>